<svg xmlns="http://www.w3.org/2000/svg" xmlns:xlink="http://www.w3.org/1999/xlink" width="500" zoomAndPan="magnify" viewBox="0 0 375 374.999991" height="500" preserveAspectRatio="xMidYMid meet" version="1.0"><defs><g/><clipPath id="79f13b5bb4"><path d="M 36.292969 295 L 338 295 L 338 336 L 36.292969 336 Z M 36.292969 295 " clip-rule="nonzero"/></clipPath><clipPath id="2c8e0b885d"><path d="M 36.292969 155 L 338 155 L 338 226 L 36.292969 226 Z M 36.292969 155 " clip-rule="nonzero"/></clipPath></defs><path fill="#836953" d="M 179.480469 88.066406 C 182.207031 116.546875 167.671875 141.238281 147.019531 143.214844 C 126.363281 145.191406 107.414062 123.703125 104.6875 95.222656 C 101.960938 66.738281 116.496094 42.050781 137.148438 40.070312 C 157.800781 38.09375 176.753906 59.582031 179.480469 88.066406 " fill-opacity="1" fill-rule="nonzero"/><path fill="#836953" d="M 269.871094 98.058594 C 264.988281 126.25 244.453125 146.234375 224.011719 142.691406 C 203.570312 139.148438 190.957031 113.421875 195.84375 85.230469 C 200.726562 57.035156 221.261719 37.054688 241.703125 40.597656 C 262.144531 44.140625 274.757812 69.867188 269.871094 98.058594 " fill-opacity="1" fill-rule="nonzero"/><path fill="#836953" d="M 327.589844 167.167969 C 316.777344 189.75 295.007812 201.828125 278.96875 194.148438 C 262.929688 186.46875 258.691406 161.933594 269.503906 139.355469 C 280.316406 116.773438 302.082031 104.695312 318.121094 112.375 C 334.164062 120.054688 338.398438 144.589844 327.589844 167.167969 " fill-opacity="1" fill-rule="nonzero"/><path fill="#836953" d="M 105.363281 142.601562 C 112.75 166.523438 104.96875 190.167969 87.976562 195.417969 C 70.984375 200.671875 51.21875 185.535156 43.828125 161.613281 C 36.441406 137.695312 44.222656 114.046875 61.214844 108.796875 C 78.207031 103.546875 97.972656 118.679688 105.363281 142.601562 " fill-opacity="1" fill-rule="nonzero"/><g clip-path="url(#79f13b5bb4)"><path fill="#836953" d="M 338 295.03125 L 36.609375 295.03125 L 36.609375 303.972656 L 93.761719 303.972656 C 101.085938 319.625 113.726562 331.722656 130.910156 334.746094 C 148.277344 337.800781 165.773438 331.03125 183.355469 330.539062 C 196.386719 330.171875 209.285156 333.265625 222.296875 334.132812 C 237.640625 335.152344 252.496094 332.210938 264.042969 320.492188 C 268.703125 315.757812 272.566406 310.125 275.578125 303.972656 L 338 303.972656 L 338 295.03125 " fill-opacity="1" fill-rule="nonzero"/></g><g clip-path="url(#2c8e0b885d)"><path fill="#836953" d="M 269.605469 216.796875 C 258.0625 194.320312 240.519531 175.933594 219.410156 164.734375 C 197.433594 153.074219 172.25 153.074219 150.265625 164.726562 C 129.136719 175.925781 111.585938 194.3125 100.035156 216.796875 L 36.609375 216.796875 L 36.609375 225.738281 L 338 225.738281 L 338 216.796875 L 269.605469 216.796875 " fill-opacity="1" fill-rule="nonzero"/></g><g fill="#836953" fill-opacity="1"><g transform="translate(39.380861, 284.351965)"><g><path d="M 22.46875 -43.5 C 25.582031 -43.5 28.242188 -42.925781 30.453125 -41.78125 C 32.660156 -40.644531 34.328125 -39.050781 35.453125 -37 C 36.585938 -34.945312 37.15625 -32.5625 37.15625 -29.84375 C 37.15625 -27.125 36.585938 -24.742188 35.453125 -22.703125 C 34.328125 -20.660156 32.660156 -19.066406 30.453125 -17.921875 C 28.242188 -16.785156 25.582031 -16.21875 22.46875 -16.21875 L 14.25 -16.21875 L 14.25 0 L 5.65625 0 L 5.65625 -43.5 Z M 21.328125 -23.03125 C 26.109375 -23.03125 28.5 -25.300781 28.5 -29.84375 C 28.5 -34.40625 26.109375 -36.6875 21.328125 -36.6875 L 14.25 -36.6875 L 14.25 -23.03125 Z M 21.328125 -23.03125 "/></g></g></g><g fill="#836953" fill-opacity="1"><g transform="translate(79.133056, 284.351965)"><g><path d="M 12.796875 0.625 C 10.691406 0.625 8.863281 0.238281 7.3125 -0.53125 C 5.769531 -1.3125 4.582031 -2.445312 3.75 -3.9375 C 2.914062 -5.4375 2.5 -7.238281 2.5 -9.34375 C 2.5 -11.289062 2.914062 -12.921875 3.75 -14.234375 C 4.582031 -15.554688 5.867188 -16.640625 7.609375 -17.484375 C 9.359375 -18.328125 11.640625 -18.976562 14.453125 -19.4375 C 16.421875 -19.75 17.914062 -20.09375 18.9375 -20.46875 C 19.957031 -20.84375 20.644531 -21.269531 21 -21.75 C 21.363281 -22.226562 21.546875 -22.832031 21.546875 -23.5625 C 21.546875 -24.613281 21.175781 -25.414062 20.4375 -25.96875 C 19.707031 -26.53125 18.488281 -26.8125 16.78125 -26.8125 C 14.957031 -26.8125 13.222656 -26.40625 11.578125 -25.59375 C 9.929688 -24.78125 8.503906 -23.707031 7.296875 -22.375 L 6.6875 -22.375 L 3.25 -27.578125 C 4.914062 -29.421875 6.945312 -30.859375 9.34375 -31.890625 C 11.738281 -32.921875 14.359375 -33.4375 17.203125 -33.4375 C 21.546875 -33.4375 24.6875 -32.515625 26.625 -30.671875 C 28.570312 -28.828125 29.546875 -26.210938 29.546875 -22.828125 L 29.546875 -8.5625 C 29.546875 -7.101562 30.191406 -6.375 31.484375 -6.375 C 31.972656 -6.375 32.457031 -6.460938 32.9375 -6.640625 L 33.359375 -6.515625 L 33.953125 -0.78125 C 33.492188 -0.476562 32.859375 -0.234375 32.046875 -0.046875 C 31.234375 0.140625 30.34375 0.234375 29.375 0.234375 C 27.40625 0.234375 25.867188 -0.140625 24.765625 -0.890625 C 23.671875 -1.640625 22.882812 -2.820312 22.40625 -4.4375 L 21.78125 -4.5 C 20.175781 -1.082031 17.179688 0.625 12.796875 0.625 Z M 15.40625 -5.53125 C 17.3125 -5.53125 18.832031 -6.171875 19.96875 -7.453125 C 21.113281 -8.734375 21.6875 -10.515625 21.6875 -12.796875 L 21.6875 -16.125 L 21.125 -16.25 C 20.625 -15.851562 19.972656 -15.519531 19.171875 -15.25 C 18.367188 -14.976562 17.210938 -14.710938 15.703125 -14.453125 C 13.921875 -14.160156 12.640625 -13.648438 11.859375 -12.921875 C 11.078125 -12.203125 10.6875 -11.175781 10.6875 -9.84375 C 10.6875 -8.4375 11.101562 -7.363281 11.9375 -6.625 C 12.769531 -5.894531 13.925781 -5.53125 15.40625 -5.53125 Z M 15.40625 -5.53125 "/></g></g></g><g fill="#836953" fill-opacity="1"><g transform="translate(113.737698, 284.351965)"><g><path d="M 17.609375 0 L 8.984375 0 L 1.1875 -32.8125 L 8.84375 -32.8125 L 13.65625 -10.625 L 14.28125 -10.625 L 20.53125 -32.8125 L 27.671875 -32.8125 L 34.125 -10.625 L 34.75 -10.625 L 39.390625 -32.8125 L 46.828125 -32.8125 L 39.125 0 L 30.46875 0 L 24.25 -22.34375 L 23.625 -22.34375 Z M 17.609375 0 "/></g></g></g><g fill="#836953" fill-opacity="1"><g transform="translate(161.731928, 284.351965)"><g><path d="M 23.71875 0.625 C 19.726562 0.625 16.207031 -0.1875 13.15625 -1.8125 C 10.113281 -3.4375 7.726562 -5.921875 6 -9.265625 C 4.28125 -12.609375 3.421875 -16.769531 3.421875 -21.75 C 3.421875 -26.726562 4.28125 -30.890625 6 -34.234375 C 7.726562 -37.578125 10.113281 -40.0625 13.15625 -41.6875 C 16.207031 -43.3125 19.726562 -44.125 23.71875 -44.125 C 27.695312 -44.125 31.203125 -43.316406 34.234375 -41.703125 C 37.273438 -40.085938 39.65625 -37.601562 41.375 -34.25 C 43.09375 -30.894531 43.953125 -26.726562 43.953125 -21.75 C 43.953125 -16.769531 43.09375 -12.601562 41.375 -9.25 C 39.65625 -5.894531 37.273438 -3.410156 34.234375 -1.796875 C 31.203125 -0.179688 27.695312 0.625 23.71875 0.625 Z M 23.71875 -6.84375 C 27.40625 -6.84375 30.21875 -8.023438 32.15625 -10.390625 C 34.101562 -12.765625 35.078125 -16.550781 35.078125 -21.75 C 35.078125 -26.945312 34.101562 -30.734375 32.15625 -33.109375 C 30.21875 -35.492188 27.40625 -36.6875 23.71875 -36.6875 C 20.007812 -36.6875 17.175781 -35.492188 15.21875 -33.109375 C 13.257812 -30.734375 12.28125 -26.945312 12.28125 -21.75 C 12.28125 -16.550781 13.257812 -12.765625 15.21875 -10.390625 C 17.175781 -8.023438 20.007812 -6.84375 23.71875 -6.84375 Z M 23.71875 -6.84375 "/></g></g></g><g fill="#836953" fill-opacity="1"><g transform="translate(209.131064, 284.351965)"><g><path d="M 4.734375 0 L 4.734375 -32.8125 L 12.734375 -32.8125 L 12.734375 -27.9375 L 13.359375 -27.828125 C 14.148438 -29.648438 15.191406 -30.984375 16.484375 -31.828125 C 17.773438 -32.679688 19.34375 -33.109375 21.1875 -33.109375 C 23.050781 -33.109375 24.46875 -32.796875 25.4375 -32.171875 L 24.046875 -25.046875 L 23.421875 -24.9375 C 22.878906 -25.15625 22.359375 -25.3125 21.859375 -25.40625 C 21.367188 -25.507812 20.765625 -25.5625 20.046875 -25.5625 C 17.753906 -25.5625 16 -24.75 14.78125 -23.125 C 13.570312 -21.507812 12.96875 -18.921875 12.96875 -15.359375 L 12.96875 0 Z M 4.734375 0 "/></g></g></g><g fill="#836953" fill-opacity="1"><g transform="translate(234.868825, 284.351965)"><g><path d="M 16.21875 0.625 C 13.613281 0.625 11.316406 -0.00390625 9.328125 -1.265625 C 7.335938 -2.523438 5.773438 -4.425781 4.640625 -6.96875 C 3.515625 -9.519531 2.953125 -12.660156 2.953125 -16.390625 C 2.953125 -20.140625 3.53125 -23.289062 4.6875 -25.84375 C 5.84375 -28.394531 7.445312 -30.296875 9.5 -31.546875 C 11.5625 -32.804688 13.941406 -33.4375 16.640625 -33.4375 C 18.679688 -33.4375 20.445312 -33.082031 21.9375 -32.375 C 23.4375 -31.675781 24.703125 -30.582031 25.734375 -29.09375 L 26.359375 -29.25 L 26.359375 -46 L 34.609375 -46 L 34.609375 0 L 26.359375 0 L 26.359375 -4.25 L 25.734375 -4.375 C 24.828125 -2.820312 23.578125 -1.597656 21.984375 -0.703125 C 20.398438 0.179688 18.476562 0.625 16.21875 0.625 Z M 18.890625 -6.375 C 21.210938 -6.375 23.046875 -7.203125 24.390625 -8.859375 C 25.742188 -10.515625 26.421875 -13.023438 26.421875 -16.390625 C 26.421875 -19.765625 25.742188 -22.285156 24.390625 -23.953125 C 23.046875 -25.617188 21.210938 -26.453125 18.890625 -26.453125 C 16.472656 -26.453125 14.625 -25.644531 13.34375 -24.03125 C 12.0625 -22.414062 11.421875 -19.867188 11.421875 -16.390625 C 11.421875 -12.941406 12.0625 -10.410156 13.34375 -8.796875 C 14.625 -7.179688 16.472656 -6.375 18.890625 -6.375 Z M 18.890625 -6.375 "/></g></g></g><g fill="#836953" fill-opacity="1"><g transform="translate(274.204455, 284.351965)"><g><path d="M 32.4375 -14.546875 L 11.34375 -14.546875 C 11.570312 -11.691406 12.378906 -9.613281 13.765625 -8.3125 C 15.160156 -7.019531 17.054688 -6.375 19.453125 -6.375 C 21.335938 -6.375 22.863281 -6.722656 24.03125 -7.421875 C 25.207031 -8.128906 26.15625 -9.195312 26.875 -10.625 L 27.5 -10.625 L 32.96875 -7.109375 C 31.894531 -4.804688 30.273438 -2.941406 28.109375 -1.515625 C 25.953125 -0.0859375 23.066406 0.625 19.453125 0.625 C 16.066406 0.625 13.140625 -0.0195312 10.671875 -1.3125 C 8.203125 -2.601562 6.296875 -4.519531 4.953125 -7.0625 C 3.617188 -9.613281 2.953125 -12.722656 2.953125 -16.390625 C 2.953125 -20.117188 3.65625 -23.265625 5.0625 -25.828125 C 6.46875 -28.390625 8.367188 -30.296875 10.765625 -31.546875 C 13.171875 -32.804688 15.867188 -33.4375 18.859375 -33.4375 C 23.503906 -33.4375 27.0625 -32.207031 29.53125 -29.75 C 32 -27.289062 33.234375 -23.679688 33.234375 -18.921875 C 33.234375 -17.191406 33.175781 -15.851562 33.0625 -14.90625 Z M 25.34375 -19.875 C 25.269531 -22.375 24.691406 -24.191406 23.609375 -25.328125 C 22.523438 -26.472656 20.941406 -27.046875 18.859375 -27.046875 C 14.691406 -27.046875 12.242188 -24.65625 11.515625 -19.875 Z M 25.34375 -19.875 "/></g></g></g><g fill="#836953" fill-opacity="1"><g transform="translate(309.880265, 284.351965)"><g><path d="M 4.734375 0 L 4.734375 -32.8125 L 12.734375 -32.8125 L 12.734375 -27.9375 L 13.359375 -27.828125 C 14.148438 -29.648438 15.191406 -30.984375 16.484375 -31.828125 C 17.773438 -32.679688 19.34375 -33.109375 21.1875 -33.109375 C 23.050781 -33.109375 24.46875 -32.796875 25.4375 -32.171875 L 24.046875 -25.046875 L 23.421875 -24.9375 C 22.878906 -25.15625 22.359375 -25.3125 21.859375 -25.40625 C 21.367188 -25.507812 20.765625 -25.5625 20.046875 -25.5625 C 17.753906 -25.5625 16 -24.75 14.78125 -23.125 C 13.570312 -21.507812 12.96875 -18.921875 12.96875 -15.359375 L 12.96875 0 Z M 4.734375 0 "/></g></g></g></svg>